<?plantuml 1.2026.2?><svg xmlns="http://www.w3.org/2000/svg" xmlns:xlink="http://www.w3.org/1999/xlink" contentStyleType="text/css" data-diagram-type="SEQUENCE" height="1893.75px" preserveAspectRatio="none" style="width:2108px;height:1893px;background:#FFFFFF;" version="1.1" viewBox="0 0 2108 1893" width="2108.3333px" zoomAndPan="magnify"><title>&#34892;&#24773;&#25968;&#25454;&#27969;&#22788;&#29702;&#27969;&#31243;</title><defs/><g><text fill="#2C3E50" font-family="sans-serif" font-size="29.1667" font-weight="bold" lengthAdjust="spacing" textLength="270.7031" x="910.8368" y="58.3232">&#34892;&#24773;&#25968;&#25454;&#27969;&#22788;&#29702;&#27969;&#31243;</text><g class="participant-lifeline" data-entity-uid="part1" data-qualified-name="api" id="part1-lifeline"><g><title>..... API</title><rect fill="#000000" fill-opacity="0.00000" height="1445.2474" width="16.6667" x="108.9569" y="251.8555"/><line style="stroke:#181818;stroke-width:1.0417;stroke-dasharray:10.4167,10.4167;" x1="116.6667" x2="116.6667" y1="251.8555" y2="1697.1029"/></g></g><g class="participant-lifeline" data-entity-uid="part2" data-qualified-name="client" id="part2-lifeline"><g><title>StockApiClient</title><rect fill="#000000" fill-opacity="0.00000" height="1445.2474" width="16.6667" x="375.6236" y="251.8555"/><line style="stroke:#181818;stroke-width:1.0417;stroke-dasharray:10.4167,10.4167;" x1="382.2591" x2="382.2591" y1="251.8555" y2="1697.1029"/></g></g><g class="participant-lifeline" data-entity-uid="part3" data-qualified-name="kafka" id="part3-lifeline"><g><title>Kafka</title><rect fill="#000000" fill-opacity="0.00000" height="1445.2474" width="16.6667" x="829.2948" y="251.8555"/><line style="stroke:#181818;stroke-width:1.0417;stroke-dasharray:10.4167,10.4167;" x1="836.8764" x2="836.8764" y1="251.8555" y2="1697.1029"/></g></g><g class="participant-lifeline" data-entity-uid="part4" data-qualified-name="consumer" id="part4-lifeline"><g><title>KafkaConsumer</title><rect fill="#000000" fill-opacity="0.00000" height="1445.2474" width="16.6667" x="1145.4244" y="251.8555"/><line style="stroke:#181818;stroke-width:1.0417;stroke-dasharray:10.4167,10.4167;" x1="1152.9633" x2="1152.9633" y1="251.8555" y2="1697.1029"/></g></g><g class="participant-lifeline" data-entity-uid="part5" data-qualified-name="redis" id="part5-lifeline"><g><title>Redis</title><rect fill="#000000" fill-opacity="0.00000" height="1445.2474" width="16.6667" x="1448.9604" y="251.8555"/><line style="stroke:#181818;stroke-width:1.0417;stroke-dasharray:10.4167,10.4167;" x1="1456.8654" x2="1456.8654" y1="251.8555" y2="1697.1029"/></g></g><g class="participant-lifeline" data-entity-uid="part6" data-qualified-name="mysql" id="part6-lifeline"><g><title>MySQL</title><rect fill="#000000" fill-opacity="0.00000" height="1445.2474" width="16.6667" x="1572.3785" y="251.8555"/><line style="stroke:#181818;stroke-width:1.0417;stroke-dasharray:10.4167,10.4167;" x1="1580.6386" x2="1580.6386" y1="251.8555" y2="1697.1029"/></g></g><g class="participant-lifeline" data-entity-uid="part7" data-qualified-name="websocket" id="part7-lifeline"><g><title>WebSocket</title><rect fill="#000000" fill-opacity="0.00000" height="1445.2474" width="16.6667" x="1746.0999" y="251.8555"/><line style="stroke:#181818;stroke-width:1.0417;stroke-dasharray:10.4167,10.4167;" x1="1753.7018" x2="1753.7018" y1="251.8555" y2="1697.1029"/></g></g><g class="participant-lifeline" data-entity-uid="part8" data-qualified-name="user" id="part8-lifeline"><g><title>....</title><rect fill="#000000" fill-opacity="0.00000" height="1445.2474" width="16.6667" x="2011.1267" y="251.8555"/><line style="stroke:#181818;stroke-width:1.0417;stroke-dasharray:10.4167,10.4167;" x1="2019.46" x2="2019.46" y1="251.8555" y2="1697.1029"/></g></g><g class="participant participant-head" data-entity-uid="part1" data-qualified-name="api" id="part1-head"><text fill="#2C3E50" font-family="sans-serif" font-size="29.1667" lengthAdjust="spacing" textLength="201.2472" x="10.4167" y="244.9768">&#31532;&#19977;&#26041;&#34892;&#24773; API</text><ellipse cx="117.2902" cy="110.612" fill="#E3F2FD" rx="16.6667" ry="16.6667" style="stroke:#181818;stroke-width:1.0417;"/><path d="M117.2902,127.2786 L117.2902,183.5286 M90.2069,143.9453 L144.3736,143.9453 M117.2902,183.5286 L90.2069,214.7786 M117.2902,183.5286 L144.3736,214.7786" fill="none" style="stroke:#181818;stroke-width:1.0417;"/></g><g class="participant participant-tail" data-entity-uid="part1" data-qualified-name="api" id="part1-tail"><text fill="#2C3E50" font-family="sans-serif" font-size="29.1667" lengthAdjust="spacing" textLength="201.2472" x="10.4167" y="1722.0927">&#31532;&#19977;&#26041;&#34892;&#24773; API</text><ellipse cx="117.2902" cy="1746.6797" fill="#E3F2FD" rx="16.6667" ry="16.6667" style="stroke:#181818;stroke-width:1.0417;"/><path d="M117.2902,1763.3464 L117.2902,1819.5964 M90.2069,1780.013 L144.3736,1780.013 M117.2902,1819.5964 L90.2069,1850.8464 M117.2902,1819.5964 L144.3736,1850.8464" fill="none" style="stroke:#181818;stroke-width:1.0417;"/></g><g class="participant participant-head" data-entity-uid="part2" data-qualified-name="client" id="part2-head"><rect fill="#E3F2FD" height="97.0703" rx="5.2083" ry="5.2083" style="stroke:#181818;stroke-width:1.0417;" width="240.8956" x="263.5091" y="152.7018"/><text fill="#2C3E50" font-family="sans-serif" font-size="29.1667" lengthAdjust="spacing" textLength="211.7289" x="278.0924" y="194.3583">StockApiClient</text><text fill="#2C3E50" font-family="sans-serif" font-size="29.1667" lengthAdjust="spacing" textLength="116.6667" x="325.6236" y="228.3101">&#23450;&#26102;&#25289;&#21462;</text></g><g class="participant participant-tail" data-entity-uid="part2" data-qualified-name="client" id="part2-tail"><rect fill="#E3F2FD" height="97.0703" rx="5.2083" ry="5.2083" style="stroke:#181818;stroke-width:1.0417;" width="240.8956" x="263.5091" y="1695.0195"/><text fill="#2C3E50" font-family="sans-serif" font-size="29.1667" lengthAdjust="spacing" textLength="211.7289" x="278.0924" y="1736.676">StockApiClient</text><text fill="#2C3E50" font-family="sans-serif" font-size="29.1667" lengthAdjust="spacing" textLength="116.6667" x="325.6236" y="1770.6278">&#23450;&#26102;&#25289;&#21462;</text></g><g class="participant participant-head" data-entity-uid="part3" data-qualified-name="kafka" id="part3-head"><path d="M682.7098,163.1185 L992.5466,163.1185 C1002.9633,163.1185 1002.9633,207.487 1002.9633,207.487 C1002.9633,207.487 1002.9633,251.8555 992.5466,251.8555 L682.7098,251.8555 C672.2931,251.8555 672.2931,207.487 672.2931,207.487 C672.2931,207.487 672.2931,163.1185 682.7098,163.1185" fill="#E3F2FD" style="stroke:#181818;stroke-width:1.0417;"/><path d="M992.5466,163.1185 C982.1299,163.1185 982.1299,207.487 982.1299,207.487 C982.1299,251.8555 992.5466,251.8555 992.5466,251.8555" fill="none" style="stroke:#181818;stroke-width:1.0417;"/><text fill="#2C3E50" font-family="sans-serif" font-size="29.1667" lengthAdjust="spacing" textLength="82.0313" x="786.1959" y="200.6083">Kafka</text><text fill="#2C3E50" font-family="sans-serif" font-size="29.1667" lengthAdjust="spacing" textLength="289.0035" x="682.7098" y="234.5601">stock-price-updates</text></g><g class="participant participant-tail" data-entity-uid="part3" data-qualified-name="kafka" id="part3-tail"><path d="M682.7098,1695.0195 L992.5466,1695.0195 C1002.9633,1695.0195 1002.9633,1739.388 1002.9633,1739.388 C1002.9633,1739.388 1002.9633,1783.7565 992.5466,1783.7565 L682.7098,1783.7565 C672.2931,1783.7565 672.2931,1739.388 672.2931,1739.388 C672.2931,1739.388 672.2931,1695.0195 682.7098,1695.0195" fill="#E3F2FD" style="stroke:#181818;stroke-width:1.0417;"/><path d="M992.5466,1695.0195 C982.1299,1695.0195 982.1299,1739.388 982.1299,1739.388 C982.1299,1783.7565 992.5466,1783.7565 992.5466,1783.7565" fill="none" style="stroke:#181818;stroke-width:1.0417;"/><text fill="#2C3E50" font-family="sans-serif" font-size="29.1667" lengthAdjust="spacing" textLength="82.0313" x="786.1959" y="1732.5094">Kafka</text><text fill="#2C3E50" font-family="sans-serif" font-size="29.1667" lengthAdjust="spacing" textLength="289.0035" x="682.7098" y="1766.4612">stock-price-updates</text></g><g class="participant participant-head" data-entity-uid="part4" data-qualified-name="consumer" id="part4-head"><rect fill="#E3F2FD" height="97.0703" rx="5.2083" ry="5.2083" style="stroke:#181818;stroke-width:1.0417;" width="259.9223" x="1023.7966" y="152.7018"/><text fill="#2C3E50" font-family="sans-serif" font-size="29.1667" lengthAdjust="spacing" textLength="230.7556" x="1038.3799" y="194.3583">KafkaConsumer</text><text fill="#2C3E50" font-family="sans-serif" font-size="29.1667" lengthAdjust="spacing" textLength="87.5" x="1110.0077" y="228.3101">&#28040;&#36153;&#32773;</text></g><g class="participant participant-tail" data-entity-uid="part4" data-qualified-name="consumer" id="part4-tail"><rect fill="#E3F2FD" height="97.0703" rx="5.2083" ry="5.2083" style="stroke:#181818;stroke-width:1.0417;" width="259.9223" x="1023.7966" y="1695.0195"/><text fill="#2C3E50" font-family="sans-serif" font-size="29.1667" lengthAdjust="spacing" textLength="230.7556" x="1038.3799" y="1736.676">KafkaConsumer</text><text fill="#2C3E50" font-family="sans-serif" font-size="29.1667" lengthAdjust="spacing" textLength="87.5" x="1110.0077" y="1770.6278">&#28040;&#36153;&#32773;</text></g><g class="participant participant-head" data-entity-uid="part5" data-qualified-name="redis" id="part5-head"><text fill="#2C3E50" font-family="sans-serif" font-size="29.1667" lengthAdjust="spacing" textLength="80.0232" x="1411.0321" y="211.025">Redis</text><text fill="#2C3E50" font-family="sans-serif" font-size="29.1667" lengthAdjust="spacing" textLength="58.3333" x="1421.877" y="244.9768">&#32531;&#23384;</text><path d="M1419.7937,108.9518 C1419.7937,88.1185 1457.2937,88.1185 1457.2937,88.1185 C1457.2937,88.1185 1494.7937,88.1185 1494.7937,108.9518 L1494.7937,163.1185 C1494.7937,183.9518 1457.2937,183.9518 1457.2937,183.9518 C1457.2937,183.9518 1419.7937,183.9518 1419.7937,163.1185 L1419.7937,108.9518" fill="#E3F2FD" style="stroke:#181818;stroke-width:1.0417;"/><path d="M1419.7937,108.9518 C1419.7937,129.7852 1457.2937,129.7852 1457.2937,129.7852 C1457.2937,129.7852 1494.7937,129.7852 1494.7937,108.9518" fill="none" style="stroke:#181818;stroke-width:1.0417;"/></g><g class="participant participant-tail" data-entity-uid="part5" data-qualified-name="redis" id="part5-tail"><text fill="#2C3E50" font-family="sans-serif" font-size="29.1667" lengthAdjust="spacing" textLength="80.0232" x="1411.0321" y="1722.0927">Redis</text><text fill="#2C3E50" font-family="sans-serif" font-size="29.1667" lengthAdjust="spacing" textLength="58.3333" x="1421.877" y="1756.0445">&#32531;&#23384;</text><path d="M1419.7937,1783.7565 C1419.7937,1762.9232 1457.2937,1762.9232 1457.2937,1762.9232 C1457.2937,1762.9232 1494.7937,1762.9232 1494.7937,1783.7565 L1494.7937,1837.9232 C1494.7937,1858.7565 1457.2937,1858.7565 1457.2937,1858.7565 C1457.2937,1858.7565 1419.7937,1858.7565 1419.7937,1837.9232 L1419.7937,1783.7565" fill="#E3F2FD" style="stroke:#181818;stroke-width:1.0417;"/><path d="M1419.7937,1783.7565 C1419.7937,1804.5898 1457.2937,1804.5898 1457.2937,1804.5898 C1457.2937,1804.5898 1494.7937,1804.5898 1494.7937,1783.7565" fill="none" style="stroke:#181818;stroke-width:1.0417;"/></g><g class="participant participant-head" data-entity-uid="part6" data-qualified-name="mysql" id="part6-head"><text fill="#2C3E50" font-family="sans-serif" font-size="29.1667" lengthAdjust="spacing" textLength="100.1465" x="1524.3886" y="211.025">MySQL</text><text fill="#2C3E50" font-family="sans-serif" font-size="29.1667" lengthAdjust="spacing" textLength="87.5" x="1530.7119" y="244.9768">&#25345;&#20037;&#21270;</text><path d="M1543.2119,108.9518 C1543.2119,88.1185 1580.7119,88.1185 1580.7119,88.1185 C1580.7119,88.1185 1618.2119,88.1185 1618.2119,108.9518 L1618.2119,163.1185 C1618.2119,183.9518 1580.7119,183.9518 1580.7119,183.9518 C1580.7119,183.9518 1543.2119,183.9518 1543.2119,163.1185 L1543.2119,108.9518" fill="#E3F2FD" style="stroke:#181818;stroke-width:1.0417;"/><path d="M1543.2119,108.9518 C1543.2119,129.7852 1580.7119,129.7852 1580.7119,129.7852 C1580.7119,129.7852 1618.2119,129.7852 1618.2119,108.9518" fill="none" style="stroke:#181818;stroke-width:1.0417;"/></g><g class="participant participant-tail" data-entity-uid="part6" data-qualified-name="mysql" id="part6-tail"><text fill="#2C3E50" font-family="sans-serif" font-size="29.1667" lengthAdjust="spacing" textLength="100.1465" x="1524.3886" y="1722.0927">MySQL</text><text fill="#2C3E50" font-family="sans-serif" font-size="29.1667" lengthAdjust="spacing" textLength="87.5" x="1530.7119" y="1756.0445">&#25345;&#20037;&#21270;</text><path d="M1543.2119,1783.7565 C1543.2119,1762.9232 1580.7119,1762.9232 1580.7119,1762.9232 C1580.7119,1762.9232 1618.2119,1762.9232 1618.2119,1783.7565 L1618.2119,1837.9232 C1618.2119,1858.7565 1580.7119,1858.7565 1580.7119,1858.7565 C1580.7119,1858.7565 1543.2119,1858.7565 1543.2119,1837.9232 L1543.2119,1783.7565" fill="#E3F2FD" style="stroke:#181818;stroke-width:1.0417;"/><path d="M1543.2119,1783.7565 C1543.2119,1804.5898 1580.7119,1804.5898 1580.7119,1804.5898 C1580.7119,1804.5898 1618.2119,1804.5898 1618.2119,1783.7565" fill="none" style="stroke:#181818;stroke-width:1.0417;"/></g><g class="participant participant-head" data-entity-uid="part7" data-qualified-name="websocket" id="part7-head"><rect fill="#E3F2FD" height="97.0703" rx="5.2083" ry="5.2083" style="stroke:#181818;stroke-width:1.0417;" width="193.1295" x="1657.8684" y="152.7018"/><text fill="#2C3E50" font-family="sans-serif" font-size="29.1667" lengthAdjust="spacing" textLength="163.9628" x="1672.4518" y="194.3583">WebSocket</text><text fill="#2C3E50" font-family="sans-serif" font-size="29.1667" lengthAdjust="spacing" textLength="116.6667" x="1696.0999" y="228.3101">&#25512;&#36865;&#26381;&#21153;</text></g><g class="participant participant-tail" data-entity-uid="part7" data-qualified-name="websocket" id="part7-tail"><rect fill="#E3F2FD" height="97.0703" rx="5.2083" ry="5.2083" style="stroke:#181818;stroke-width:1.0417;" width="193.1295" x="1657.8684" y="1695.0195"/><text fill="#2C3E50" font-family="sans-serif" font-size="29.1667" lengthAdjust="spacing" textLength="163.9628" x="1672.4518" y="1736.676">WebSocket</text><text fill="#2C3E50" font-family="sans-serif" font-size="29.1667" lengthAdjust="spacing" textLength="116.6667" x="1696.0999" y="1770.6278">&#25512;&#36865;&#26381;&#21153;</text></g><g class="participant participant-head" data-entity-uid="part8" data-qualified-name="user" id="part8-head"><text fill="#2C3E50" font-family="sans-serif" font-size="29.1667" lengthAdjust="spacing" textLength="116.6667" x="1954.8767" y="244.9768">&#21069;&#31471;&#29992;&#25143;</text><ellipse cx="2019.46" cy="110.612" fill="#E3F2FD" rx="16.6667" ry="16.6667" style="stroke:#181818;stroke-width:1.0417;"/><path d="M2019.46,127.2786 L2019.46,183.5286 M1992.3767,143.9453 L2046.5434,143.9453 M2019.46,183.5286 L1992.3767,214.7786 M2019.46,183.5286 L2046.5434,214.7786" fill="none" style="stroke:#181818;stroke-width:1.0417;"/></g><g class="participant participant-tail" data-entity-uid="part8" data-qualified-name="user" id="part8-tail"><text fill="#2C3E50" font-family="sans-serif" font-size="29.1667" lengthAdjust="spacing" textLength="116.6667" x="1954.8767" y="1722.0927">&#21069;&#31471;&#29992;&#25143;</text><ellipse cx="2019.46" cy="1746.6797" fill="#E3F2FD" rx="16.6667" ry="16.6667" style="stroke:#181818;stroke-width:1.0417;"/><path d="M2019.46,1763.3464 L2019.46,1819.5964 M1992.3767,1780.013 L2046.5434,1780.013 M2019.46,1819.5964 L1992.3767,1850.8464 M2019.46,1819.5964 L2046.5434,1850.8464" fill="none" style="stroke:#181818;stroke-width:1.0417;"/></g><rect fill="#EEEEEE" height="6.25" style="stroke:#EEEEEE;stroke-width:2.0833;" width="2094.46" x="0" y="315.5355"/><line style="stroke:#000000;stroke-width:2.0833;" x1="0" x2="2094.46" y1="315.5355" y2="315.5355"/><line style="stroke:#000000;stroke-width:2.0833;" x1="0" x2="2094.46" y1="321.7855" y2="321.7855"/><rect fill="#EEEEEE" height="48.1934" style="stroke:#000000;stroke-width:4.1667;" width="206.1737" x="944.1432" y="293.5221"/><text fill="#2C3E50" font-family="sans-serif" font-size="27.0833" font-weight="bold" lengthAdjust="spacing" textLength="167.5781" x="956.6432" y="326.9948">&#34892;&#24773;&#25968;&#25454;&#25289;&#21462;</text><g class="message" data-entity-1="part2" data-entity-2="part1" id="msg1"><polygon fill="#1565C0" points="140.2069,429.7689,119.3736,438.1022,140.2069,446.4355,131.8736,438.1022" style="stroke:#1565C0;stroke-width:2.0833;"/><line style="stroke:#1565C0;stroke-width:2.0833;" x1="127.7069" x2="381.8736" y1="438.1022" y2="438.1022"/><text fill="#2C3E50" font-family="sans-serif" font-size="27.0833" lengthAdjust="spacing" textLength="216.6667" x="152.7069" y="396.0215">&#23450;&#26102;&#25289;&#21462;&#34892;&#24773;&#25968;&#25454;</text><text fill="#2C3E50" font-family="sans-serif" font-size="27.0833" lengthAdjust="spacing" textLength="109.7483" x="152.7069" y="427.5482">(&#27599; 3 &#31186;)</text></g><g class="message" data-entity-1="part1" data-entity-2="part2" id="msg2"><polygon fill="#1565C0" points="358.9569,490.4622,379.7902,498.7956,358.9569,507.1289,367.2902,498.7956" style="stroke:#1565C0;stroke-width:2.0833;"/><line style="stroke:#1565C0;stroke-width:2.0833;stroke-dasharray:4.1667,4.1667;" x1="117.2902" x2="371.4569" y1="498.7956" y2="498.7956"/><text fill="#2C3E50" font-family="sans-serif" font-size="27.0833" lengthAdjust="spacing" textLength="162.5" x="131.8736" y="488.2416">&#36820;&#22238;&#26368;&#26032;&#20215;&#26684;</text></g><rect fill="#EEEEEE" height="6.25" style="stroke:#EEEEEE;stroke-width:2.0833;" width="2094.46" x="0" y="558.3089"/><line style="stroke:#000000;stroke-width:2.0833;" x1="0" x2="2094.46" y1="558.3089" y2="558.3089"/><line style="stroke:#000000;stroke-width:2.0833;" x1="0" x2="2094.46" y1="564.5589" y2="564.5589"/><rect fill="#EEEEEE" height="48.1934" style="stroke:#000000;stroke-width:4.1667;" width="275.0061" x="909.727" y="536.2956"/><text fill="#2C3E50" font-family="sans-serif" font-size="27.0833" font-weight="bold" lengthAdjust="spacing" textLength="236.4105" x="922.227" y="569.7683">&#25968;&#25454;&#21457;&#24067;&#21040; Kafka</text><g class="message" data-entity-1="part2" data-entity-2="part3" id="msg3"><polygon fill="#1565C0" points="812.6282,773.3724,833.4615,781.7057,812.6282,790.0391,820.9615,781.7057" style="stroke:#1565C0;stroke-width:2.0833;"/><line style="stroke:#1565C0;stroke-width:2.0833;" x1="383.9569" x2="825.1282" y1="781.7057" y2="781.7057"/><text fill="#2C3E50" font-family="sans-serif" font-size="27.0833" lengthAdjust="spacing" textLength="162.5" x="398.5402" y="739.625">&#21457;&#24067;&#34892;&#24773;&#28040;&#24687;</text><text fill="#2C3E50" font-family="sans-serif" font-size="27.0833" lengthAdjust="spacing" textLength="403.6713" x="398.5402" y="771.1517">{stockCode, price, volume...}</text></g><path d="M847.9167,615.7389 L847.9167,888.6556 L1416.6667,888.6556 L1416.6667,636.5723 L1395.8333,615.7389 L847.9167,615.7389" fill="#E3F2FD" style="stroke:#1565C0;stroke-width:1.0417;"/><path d="M1395.8333,615.7389 L1395.8333,636.5723 L1416.6667,636.5723 L1395.8333,615.7389" fill="#E3F2FD" style="stroke:#1565C0;stroke-width:1.0417;"/><text fill="#2C3E50" font-family="sans-serif" font-size="27.0833" lengthAdjust="spacing" textLength="135.4167" x="860.4167" y="651.295">&#28040;&#24687;&#26684;&#24335;&#65306;</text><text fill="#2C3E50" font-family="sans-serif" font-size="27.0833" lengthAdjust="spacing" textLength="17.2312" x="860.4167" y="682.8217">{</text><text fill="#2C3E50" font-family="sans-serif" font-size="27.0833" lengthAdjust="spacing" textLength="320.7682" x="877.6347" y="714.3483">"stockCode": "600519",</text><text fill="#2C3E50" font-family="sans-serif" font-size="27.0833" lengthAdjust="spacing" textLength="230.658" x="877.6347" y="745.875">"price": 1850.00,</text><text fill="#2C3E50" font-family="sans-serif" font-size="27.0833" lengthAdjust="spacing" textLength="256.6966" x="877.6347" y="777.4017">"changeRate": 2.5,</text><text fill="#2C3E50" font-family="sans-serif" font-size="27.0833" lengthAdjust="spacing" textLength="272.2087" x="877.6347" y="808.9284">"volume": 1234567,</text><text fill="#2C3E50" font-family="sans-serif" font-size="27.0833" lengthAdjust="spacing" textLength="509.2275" x="877.6347" y="840.4551">"timestamp": "2026-03-09T10:30:00"</text><text fill="#2C3E50" font-family="sans-serif" font-size="27.0833" lengthAdjust="spacing" textLength="17.2312" x="860.4167" y="871.9818">}</text><rect fill="#EEEEEE" height="6.25" style="stroke:#EEEEEE;stroke-width:2.0833;" width="2094.46" x="0" y="942.0492"/><line style="stroke:#000000;stroke-width:2.0833;" x1="0" x2="2094.46" y1="942.0492" y2="942.0492"/><line style="stroke:#000000;stroke-width:2.0833;" x1="0" x2="2094.46" y1="948.2992" y2="948.2992"/><rect fill="#EEEEEE" height="48.1934" style="stroke:#000000;stroke-width:4.1667;" width="178.244" x="958.108" y="920.0358"/><text fill="#2C3E50" font-family="sans-serif" font-size="27.0833" font-weight="bold" lengthAdjust="spacing" textLength="139.6484" x="970.608" y="953.5085">&#28040;&#36153;&#32773;&#22788;&#29702;</text><g class="message" data-entity-1="part3" data-entity-2="part4" id="msg5"><polygon fill="#1565C0" points="1128.7577,1024.7559,1149.5911,1033.0892,1128.7577,1041.4225,1137.0911,1033.0892" style="stroke:#1565C0;stroke-width:2.0833;"/><line style="stroke:#1565C0;stroke-width:2.0833;" x1="837.6282" x2="1141.2577" y1="1033.0892" y2="1033.0892"/><text fill="#2C3E50" font-family="sans-serif" font-size="27.0833" lengthAdjust="spacing" textLength="162.5" x="852.2115" y="1022.5352">&#28040;&#36153;&#34892;&#24773;&#28040;&#24687;</text></g><g class="message" data-entity-1="part4" data-entity-2="part5" id="msg6"><polygon fill="#1565C0" points="1432.2937,1148.5026,1453.127,1156.8359,1432.2937,1165.1693,1440.627,1156.8359" style="stroke:#1565C0;stroke-width:2.0833;"/><line style="stroke:#1565C0;stroke-width:2.0833;" x1="1153.7577" x2="1444.7937" y1="1156.8359" y2="1156.8359"/><text fill="#2C3E50" font-family="sans-serif" font-size="27.0833" lengthAdjust="spacing" textLength="108.3333" x="1168.3411" y="1083.2286">&#26356;&#26032;&#32531;&#23384;</text><text fill="#2C3E50" font-family="sans-serif" font-size="27.0833" lengthAdjust="spacing" textLength="253.536" x="1168.3411" y="1114.7552">KEY: stock:600519</text><text fill="#2C3E50" font-family="sans-serif" font-size="27.0833" lengthAdjust="spacing" textLength="110.2244" x="1168.3411" y="1146.2819">TTL: 5&#31186;</text></g><g class="message" data-entity-1="part4" data-entity-2="part6" id="msg7"><polygon fill="#1565C0" points="1555.7119,1240.7227,1576.5452,1249.056,1555.7119,1257.3893,1564.0452,1249.056" style="stroke:#1565C0;stroke-width:2.0833;"/><line style="stroke:#1565C0;stroke-width:2.0833;" x1="1153.7577" x2="1568.2119" y1="1249.056" y2="1249.056"/><text fill="#2C3E50" font-family="sans-serif" font-size="27.0833" lengthAdjust="spacing" textLength="189.5833" x="1168.3411" y="1206.9753">&#25209;&#37327;&#20889;&#20837;&#25968;&#25454;&#24211;</text><text fill="#2C3E50" font-family="sans-serif" font-size="27.0833" lengthAdjust="spacing" textLength="181.1462" x="1168.3411" y="1238.502">(&#27599; 10 &#31186;&#19968;&#27425;)</text></g><rect fill="#EEEEEE" height="6.25" style="stroke:#EEEEEE;stroke-width:2.0833;" width="2094.46" x="0" y="1308.5693"/><line style="stroke:#000000;stroke-width:2.0833;" x1="0" x2="2094.46" y1="1308.5693" y2="1308.5693"/><line style="stroke:#000000;stroke-width:2.0833;" x1="0" x2="2094.46" y1="1314.8193" y2="1314.8193"/><rect fill="#EEEEEE" height="48.1934" style="stroke:#000000;stroke-width:4.1667;" width="150.3143" x="972.0729" y="1286.556"/><text fill="#2C3E50" font-family="sans-serif" font-size="27.0833" font-weight="bold" lengthAdjust="spacing" textLength="111.7188" x="984.5729" y="1320.0287">&#23454;&#26102;&#25512;&#36865;</text><g class="message" data-entity-1="part4" data-entity-2="part7" id="msg8"><polygon fill="#1565C0" points="1729.4332,1391.276,1750.2665,1399.6094,1729.4332,1407.9427,1737.7665,1399.6094" style="stroke:#1565C0;stroke-width:2.0833;"/><line style="stroke:#1565C0;stroke-width:2.0833;" x1="1153.7577" x2="1741.9332" y1="1399.6094" y2="1399.6094"/><text fill="#2C3E50" font-family="sans-serif" font-size="27.0833" lengthAdjust="spacing" textLength="162.5" x="1168.3411" y="1389.0554">&#36890;&#30693;&#26377;&#26032;&#25968;&#25454;</text></g><g class="message" data-entity-1="part7" data-entity-2="part8" id="msg9"><polygon fill="#1565C0" points="1994.46,1483.4961,2015.2934,1491.8294,1994.46,1500.1628,2002.7934,1491.8294" style="stroke:#1565C0;stroke-width:2.0833;"/><line style="stroke:#1565C0;stroke-width:2.0833;" x1="1754.4332" x2="2006.96" y1="1491.8294" y2="1491.8294"/><text fill="#2C3E50" font-family="sans-serif" font-size="27.0833" lengthAdjust="spacing" textLength="215.0269" x="1769.0165" y="1449.7487">WebSocket &#25512;&#36865;</text><text fill="#2C3E50" font-family="sans-serif" font-size="27.0833" lengthAdjust="spacing" textLength="162.5" x="1769.0165" y="1481.2754">&#23454;&#26102;&#26356;&#26032;&#20215;&#26684;</text></g><path d="M1181.25,1518.9128 L1181.25,1664.7461 L1731.25,1664.7461 L1731.25,1539.7461 L1710.4167,1518.9128 L1181.25,1518.9128" fill="#E3F2FD" style="stroke:#1565C0;stroke-width:1.0417;"/><path d="M1710.4167,1518.9128 L1710.4167,1539.7461 L1731.25,1539.7461 L1710.4167,1518.9128" fill="#E3F2FD" style="stroke:#1565C0;stroke-width:1.0417;"/><text fill="#2C3E50" font-family="sans-serif" font-size="27.0833" lengthAdjust="spacing" textLength="135.4167" x="1193.75" y="1554.4688">&#32531;&#23384;&#32467;&#26500;&#65306;</text><text fill="#2C3E50" font-family="sans-serif" font-size="27.0833" lengthAdjust="spacing" textLength="357.1747" x="1193.75" y="1585.9955">- stock:{code} -&gt; &#26368;&#26032;&#20215;&#26684;</text><text fill="#2C3E50" font-family="sans-serif" font-size="27.0833" lengthAdjust="spacing" textLength="507.5612" x="1193.75" y="1617.5222">- stock:{code}:kline:day -&gt; &#26085;K&#32447;&#25968;&#25454;</text><text fill="#2C3E50" font-family="sans-serif" font-size="27.0833" lengthAdjust="spacing" textLength="499.6267" x="1193.75" y="1649.0489">- stock:{code}:indicators -&gt; &#25216;&#26415;&#25351;&#26631;</text><?plantuml-src XLHTJnj757sVNp7Ql3GIjjPsJ9ELg4GMa2AIA06ag99VXjt1ZBoUtUoiWn12Cae8a43T5WejGJH8HK4g1HuIleAKFyFEmbF-GkPZCNQYk7uOMVUUUy-TSyyign0Qe11L8VLTp7002oPWpM28Q4K6RxK6tO30lDaQOUF8zIS8BSCnv34CMb9J08hVNUHKog5VewxjUtu89yP9X7N63rqSwkYDNB6xQ9igtXk6_iItuJuyXcfUDE3JA4tcxK9_KIVLyT2FyDTqD_eB0_c1lklyTqZLOVlLmAUOHfsw364dGhJiTQJgGn4QHQmZvd4Drpe2XYC_HEME4DlpQsudW3eUeJ0Y3WbGvvlrEeBmVvlP7cBiUwXf028IUHXUR2tovxFyZmE-jCS_pCJ_l4X-VId-93kl0K2I21h9xkxvyG9VFT5WsFledW4HWoWW8BWU6Hf22AVI6n3R8s8v9HhlhVErG_vw8MwigWf79S1JgIWq1j5O1PKearMP82GEpjG25qMOAN15fji9L8NjKrQhuh14-U7ynVkJY_giRfx6WPik5Hf3s2MiH9EpvVY_FnKeb94Mn8F9uSVtHQV5cVEJsNXHZrcTP4-zTkOdU7HOZ8d5hVWlEvVr6Rwn5B_QKl09FCfKxagmU64f-NS_MTdXyqSAKMDYBD3JqowtqWNsz00j2ypy92M55cpLhRMYH7_W-mrOWCcxtsy2YSs8chJQWXUVLk8tctoZpbSFpZyUyRTdYbFNnetVukFdyVm1L2Asqogf9R42fPI7ytnclqIdr7viyUtfWcf9NV2PxmcXizdiDA3YhSAGbCSZOJfT8dZZiyRditKHqTyMezd2iA3HRPh5t1sZIwTKIn7EtIwQMTDCeywuUBfuI7X1fFBPOXhMn1ATBzmgTl-OXYDInIn2rK2spvlvxenPo9XtHdAcLJ0jqpG4R1fWwa8vhXRboZhQyL8EBO8KD3MI42I5jGW2cbc1L6wIi3VlXURQPYKwsF-p1TMLBNtN4XqPkM_1ebXRMxdocInVEBcSQyGl_ufdjzDjdIwdoywPSjldntM-ktLJZHxlRKftA1UgDRPqR5fHTBsihoT_R_CDyN8FT5TmdHPOQKe1QpeRwfRosIe2TQSh7waz-yz4XNv14EhR9X-N-UOBlUnCUkafHsnwMbAqUV5hW5Nn2CMMYoOLT6rxC3dzb0xw3PPGbpX8l2wcmA_gV6EVByxnjtFNU_q2?></g></svg>